<?xml version="1.0" encoding="UTF-8"?>
<svg version="1.1" xmlns="http://www.w3.org/2000/svg" width="542" height="300">
<path d="M0 0 C0.9796875 0.17160645 1.959375 0.34321289 2.96875 0.52001953 C25.96606281 4.6653148 48.42751045 11.01286715 70 20 C70.81210937 20.33725098 71.62421875 20.67450195 72.4609375 21.02197266 C92.30607242 29.3713535 111.43152654 39.53758488 129 52 C130.21050101 52.84177387 131.4214455 53.68291032 132.6328125 54.5234375 C140.03512945 59.69591334 147.09478876 65.17493354 154 71 C154.98484375 71.79921875 155.9696875 72.5984375 156.984375 73.421875 C165.02331604 80.02463327 172.44466033 87.23034637 179.8125 94.5625 C180.54430481 95.28654022 180.54430481 95.28654022 181.29089355 96.02520752 C187.9918015 102.66999726 194.11713041 109.62065713 200 117 C200.87502844 118.03934608 201.75515388 119.07446808 202.64453125 120.1015625 C207.5945402 125.86319454 212.25227539 131.81787063 216.75 137.9375 C217.30018799 138.65953613 217.85037598 139.38157227 218.41723633 140.12548828 C222.09251775 145.22901877 222.09251775 145.22901877 221.6953125 148.5390625 C219.32460311 151.98041485 216.8036359 155.2305679 214.125 158.4375 C213.538396 159.14632324 212.95179199 159.85514648 212.34741211 160.58544922 C211.13980979 162.04081906 209.92911385 163.49362752 208.71533203 164.94384766 C207.21107713 166.74698383 205.72564813 168.56333579 204.24609375 170.38671875 C197.90166815 178.1033839 190.97660798 185.23264187 183.9375 192.3125 C183.02750244 193.2317627 182.11750488 194.15102539 181.17993164 195.09814453 C175.09193577 201.15822135 168.7056793 206.63941271 162 212 C160.1849197 213.55950185 158.37183674 215.12133812 156.5625 216.6875 C113.61798545 252.39169099 59.91198669 275.2168056 5 284 C4.02998047 284.16371094 3.05996094 284.32742188 2.06054688 284.49609375 C-28.24585476 289.45495054 -61.76289676 289.35279739 -92 284 C-93.72911621 283.69400879 -93.72911621 283.69400879 -95.49316406 283.38183594 C-160.02722696 271.58750202 -222.15718246 241.58800208 -268.01171875 193.9609375 C-270.04058806 191.83620858 -270.04058806 191.83620858 -273 190 C-273 189.34 -273 188.68 -273 188 C-273.66 188 -274.32 188 -275 188 C-276.33984375 186.671875 -276.33984375 186.671875 -277.9375 184.75 C-280.90091769 181.24889003 -283.97488733 177.89656086 -287.125 174.5625 C-293.41102888 167.8046358 -298.90032892 160.4708177 -304.42773438 153.09082031 C-306.86282492 149.85260363 -309.33702616 146.6448843 -311.8125 143.4375 C-312.63160049 142.37376727 -313.45062091 141.30997287 -314.26953125 140.24609375 C-314.84058594 139.50488281 -315.41164063 138.76367188 -316 138 C-306.18613553 115.9451863 -281.07101179 93.36036002 -263 78 C-261.60007812 76.78376953 -261.60007812 76.78376953 -260.171875 75.54296875 C-214.58777788 36.14061798 -159.3476319 10.16651568 -100 0 C-99.09491699 -0.16516113 -98.18983398 -0.33032227 -97.25732422 -0.50048828 C-66.27312353 -5.98496971 -30.93658456 -5.55147044 0 0 Z M-192 76 C-192.66789551 76.41604492 -193.33579102 76.83208984 -194.02392578 77.26074219 C-210.23261373 87.40440858 -225.32048647 98.77924759 -239.45703125 111.6796875 C-241.23466568 113.30167652 -243.02481821 114.91000455 -244.82421875 116.5078125 C-250.29227395 121.38654115 -255.34469949 126.34108925 -260 132 C-260.50660156 132.60328125 -261.01320313 133.2065625 -261.53515625 133.828125 C-262.69686119 135.21311028 -263.84961699 136.60559636 -265 138 C-264.14728516 138.94359375 -264.14728516 138.94359375 -263.27734375 139.90625 C-262.50519531 140.7621875 -261.73304688 141.618125 -260.9375 142.5 C-259.80634766 143.75296875 -259.80634766 143.75296875 -258.65234375 145.03125 C-257.23639297 146.61611391 -255.8239593 148.20439089 -254.43701172 149.81469727 C-244.02995398 161.88646544 -232.64848426 173.28744129 -220 183 C-218.94971747 183.84896437 -217.90166294 184.70069007 -216.85546875 185.5546875 C-192.82037357 205.04656347 -165.17035161 220.44174767 -136.1875 231.25 C-135.38707275 231.54994873 -134.58664551 231.84989746 -133.76196289 232.15893555 C-131.86357338 232.83837895 -129.9336686 233.42864037 -128 234 C-127.34 233.67 -126.68 233.34 -126 233 C-126.90878906 232.16082031 -126.90878906 232.16082031 -127.8359375 231.3046875 C-149.4092568 210.66068042 -163.44159534 181.3226367 -164.30078125 151.30078125 C-164.31940028 148.9714253 -164.32295154 146.64190691 -164.3125 144.3125 C-164.30947876 142.48344116 -164.30947876 142.48344116 -164.30639648 140.61743164 C-164.19087148 130.16829871 -163.32466147 119.9739844 -160 110 C-154.73229802 110.65759749 -149.69866827 111.73264124 -144.5625 113.0625 C-143.83095703 113.24876953 -143.09941406 113.43503906 -142.34570312 113.62695312 C-140.56296802 114.0813758 -138.78136213 114.54022466 -137 115 C-137.20496094 115.845625 -137.40992188 116.69125 -137.62109375 117.5625 C-144.15933936 145.09195518 -140.88824416 171.56988933 -126.05859375 195.82421875 C-111.28187937 218.62017471 -89.2997815 233.75563847 -63 240 C-36.57417502 245.33544669 -10.50014535 239.76260859 12.10253906 225.32421875 C17.5997556 221.48776707 22.27868203 216.72799593 27 212 C27.67417969 211.39671875 28.34835937 210.7934375 29.04296875 210.171875 C45.71510831 195.06394076 53.87133253 169.98466856 55.23828125 148.203125 C55.75150384 120.86726918 46.55896612 96.28186688 28 76 C10.19610677 57.72758327 -14.21466795 46.16843715 -39.91308594 45.75830078 C-64.69375999 45.67681694 -84.59914987 53.2156418 -105 67 C-106.73116808 64.81405921 -108.45996163 62.62630663 -110.1875 60.4375 C-110.67025391 59.82841797 -111.15300781 59.21933594 -111.65039062 58.59179688 C-114.11970395 55.45958064 -116.51281832 52.30285141 -118.80078125 49.03515625 C-119.52652344 48.03355469 -120.25226563 47.03195313 -121 46 C-143.03825041 46 -174.22178684 64.88068951 -192 76 Z M40 53 C40.78375 53.9075 41.5675 54.815 42.375 55.75 C42.92285156 56.39453125 43.47070312 57.0390625 44.03515625 57.703125 C45.44498142 59.35119101 46.87149322 60.98503802 48.30859375 62.609375 C72.44395069 90.47234557 79.39837923 122.83260032 78 159 C77.55995371 164.48138195 76.49001274 169.7068499 75 175 C74.6596875 176.22847656 74.319375 177.45695312 73.96875 178.72265625 C68.39914563 196.91795162 58.9847858 213.02154484 45.9453125 226.87890625 C44.14840771 228.83818196 42.5536989 230.84534209 41 233 C48.58861832 231.60000333 55.2993535 229.04466579 62.375 226 C64.0931189 225.26414673 64.0931189 225.26414673 65.84594727 224.51342773 C89.50028972 214.24078862 110.84432763 201.05089009 131 185 C131.98226562 184.23171875 132.96453125 183.4634375 133.9765625 182.671875 C147.17299487 172.16144214 160.4877438 160.22509651 171 147 C169.47920927 143.49172085 167.4004327 141.04728354 164.8125 138.25 C162.07305405 135.26743365 159.36749634 132.2773265 156.75 129.1875 C149.10922607 120.45013352 140.80695839 112.33910961 131.6953125 105.1484375 C129.92597317 103.73809455 128.18943245 102.28538749 126.4921875 100.7890625 C107.43556051 84.06590004 66.89489178 53 40 53 Z " fill="#FFFFFF" transform="translate(319,3)"/>
<path d="M0 0 C14.31108563 14.95034161 20.86151167 33.67477609 20.5 54.16796875 C19.45206876 69.44484131 14.75777494 82.82192554 5.25 94.8125 C4.59257812 95.64652344 3.93515625 96.48054688 3.2578125 97.33984375 C-8.19922526 110.95819083 -24.13412961 119.37626261 -41.75 121.8125 C-61.63831477 123.50417034 -80.018623 119.23685534 -96.0625 107 C-111.21448789 94.05871198 -120.55886653 77.69082425 -122.75 57.8125 C-123.75960512 37.83171025 -123.75960512 37.83171025 -119.75 29.8125 C-106.6063073 32.92673488 -93.68976202 36.69871914 -80.75 40.5625 C-78.70321878 41.17088852 -76.65634434 41.77896349 -74.609375 42.38671875 C-69.65517036 43.85837521 -64.7022378 45.33423913 -59.75 46.8125 C-60.68864869 45.55961814 -61.62748873 44.30687963 -62.56640625 43.05419922 C-63.08920166 42.35656464 -63.61199707 41.65893005 -64.15063477 40.94015503 C-66.66675977 37.59292332 -69.20618902 34.26371592 -71.75 30.9375 C-72.30107422 30.21643066 -72.85214844 29.49536133 -73.41992188 28.75244141 C-78.2377581 22.45917671 -83.1021273 16.20262574 -87.9921875 9.96533203 C-91.36014438 5.65557266 -94.60299386 1.28641544 -97.75 -3.1875 C-87.42618106 -14.88782814 -71.3309896 -19.82336176 -56.17578125 -21.02734375 C-34.61695193 -22.13231148 -15.68146989 -14.79952166 0 0 Z " fill="#FFFFFF" transform="translate(328.75,96.1875)"/>
</svg>
